<?xml version="1.0" encoding="iso-8859-1"?>
<!-- Uploaded to: SVG Repo, www.svgrepo.com, Generator: SVG Repo Mixer Tools -->
<svg fill="#000000" height="800px" width="800px" version="1.1" id="Layer_1" xmlns="http://www.w3.org/2000/svg" xmlns:xlink="http://www.w3.org/1999/xlink" 
	 viewBox="0 0 512 512" xml:space="preserve">
<g>
	<g>
		<path d="M475.919,27.49H36.081C16.186,27.49,0,43.676,0,63.57v311.553c0,19.895,16.186,36.081,36.081,36.081h439.839
			c19.895,0,36.081-16.186,36.081-36.081V63.57C512,43.676,495.814,27.49,475.919,27.49z M494.819,375.123
			c0,10.421-8.478,18.899-18.899,18.899H36.081c-10.421,0-18.899-8.478-18.899-18.899V63.57c0-10.421,8.478-18.899,18.899-18.899
			h439.839c10.421,0,18.899,8.478,18.899,18.899V375.123z"/>
	</g>
</g>
<g>
	<g>
		<path d="M411.776,64.143H393.45c-4.744,0-8.591,3.845-8.591,8.591c0,4.745,3.846,8.591,8.591,8.591h18.327
			c4.744,0,8.591-3.845,8.591-8.591C420.367,67.988,416.521,64.143,411.776,64.143z"/>
	</g>
</g>
<g>
	<g>
		<path d="M356.796,64.143H45.244c-4.744,0-8.591,3.845-8.591,8.591V310.98c0,4.745,3.846,8.591,8.591,8.591
			c4.744,0,8.591-3.845,8.591-8.591V81.324h302.962c4.744,0,8.591-3.845,8.591-8.591C365.387,67.988,361.541,64.143,356.796,64.143z
			"/>
	</g>
</g>
<g>
	<g>
		<path d="M466.756,64.143H448.43c-4.744,0-8.591,3.845-8.591,8.591c0,4.745,3.846,8.591,8.591,8.591h9.736v276.045H53.834v-9.736
			c0-4.745-3.846-8.591-8.591-8.591c-4.744,0-8.591,3.845-8.591,8.591v18.327c0,4.745,3.846,8.591,8.591,8.591h421.512
			c4.744,0,8.591-3.845,8.591-8.591V72.734C475.347,67.988,471.5,64.143,466.756,64.143z"/>
	</g>
</g>
<g>
	<g>
		<path d="M338.47,467.329h-20.782l-7.537-30.146c-1.151-4.603-5.819-7.403-10.418-6.251c-4.603,1.151-7.402,5.815-6.25,10.419
			l6.495,25.979h-87.955l6.495-25.979c1.151-4.603-1.647-9.268-6.251-10.419c-4.598-1.142-9.266,1.648-10.418,6.251l-7.536,30.146
			H173.53c-4.744,0-8.591,3.845-8.591,8.591c0,4.745,3.846,8.591,8.591,8.591h164.94c4.744,0,8.591-3.845,8.591-8.591
			C347.06,471.174,343.214,467.329,338.47,467.329z"/>
	</g>
</g>
<g>
	<g>
		<path d="M420.94,145.464c4.744,0,8.591-3.845,8.591-8.591V118.55c0-4.745-3.846-8.591-8.591-8.591h-54.98
			c-4.744,0-8.591,3.845-8.591,8.591v202.166h-19.472v-92.205c0-4.745-3.846-8.591-8.591-8.591c-4.744,0-8.591,3.845-8.591,8.591
			v92.205h-37.799V182.121h37.799v9.737c0,4.745,3.846,8.591,8.591,8.591c4.744,0,8.591-3.845,8.591-8.591V173.53
			c0-4.745-3.846-8.591-8.591-8.591h-54.98c-4.744,0-8.591,3.845-8.591,8.591v147.186h-19.472v-55.548
			c0-4.745-3.846-8.591-8.591-8.591c-4.744,0-8.591,3.845-8.591,8.591v55.548h-37.799V218.774h37.799v9.737
			c0,4.745,3.846,8.591,8.591,8.591c4.744,0,8.591-3.845,8.591-8.591v-18.328c0-4.745-3.846-8.591-8.591-8.591h-54.98
			c-4.744,0-8.591,3.845-8.591,8.591v110.532h-19.472v-18.902c0-4.745-3.846-8.591-8.591-8.591c-4.744,0-8.591,3.845-8.591,8.591
			v18.902H99.651v-65.289h37.799v9.738c0,4.745,3.846,8.591,8.591,8.591c4.744,0,8.591-3.845,8.591-8.591v-18.329
			c0-4.745-3.846-8.591-8.591-8.591H91.06c-4.744,0-8.591,3.845-8.591,8.591v82.47c0,4.745,3.846,8.591,8.591,8.591H420.94
			c4.744,0,8.591-3.845,8.591-8.591V173.529c0-4.745-3.846-8.591-8.591-8.591c-4.744,0-8.591,3.845-8.591,8.591v147.187H374.55
			V127.141h37.799v9.733C412.349,141.619,416.195,145.464,420.94,145.464z"/>
	</g>
</g>
</svg>